<svg width="76" height="76" viewBox="0 0 76 76" fill="none" xmlns="http://www.w3.org/2000/svg">
<path d="M28.264 24C29.5779 24 30.7917 24.1001 31.9054 24.4004C33.0191 24.6006 33.9325 25.0136 34.7459 25.5141C35.5593 26.0146 36.1599 26.7279 36.5728 27.6414C36.9733 28.5548 37.186 29.6685 37.186 30.8823C37.186 32.2963 36.8857 33.5101 36.1724 34.4235C35.5593 35.337 34.5582 36.1504 33.3319 36.751C35.0587 37.2515 36.3726 38.165 37.1735 39.3788C37.9743 40.5926 38.4874 42.1067 38.4874 43.8335C38.4874 45.2475 38.187 46.4613 37.674 47.4749C37.1735 48.4884 36.3601 49.4019 35.4466 50.0025C34.5332 50.6157 33.4195 51.1162 32.2057 51.4165C30.9919 51.7168 29.7781 51.9171 28.5644 51.9171L15 51.9421V24H28.264ZM27.4507 35.337C28.5644 35.337 29.4778 35.0367 30.1786 34.5236C30.8793 34.0106 31.1921 33.1096 31.1921 31.996C31.1921 31.3828 31.092 30.7822 30.8918 30.3818C30.6916 29.9813 30.3913 29.6685 29.9784 29.3682C29.5779 29.168 29.165 28.9678 28.6645 28.8677C28.1639 28.7675 27.6509 28.7675 27.0503 28.7675H21.1815V35.3495C21.1815 35.337 27.4507 35.337 27.4507 35.337ZM27.751 47.2872C28.3641 47.2872 28.9648 47.187 29.4778 47.0869C29.9784 46.9868 30.4914 46.7866 30.8918 46.4738C31.2922 46.161 31.6051 45.8606 31.9054 45.3601C32.1056 44.8596 32.3058 44.2464 32.3058 43.5332C32.3058 42.1192 31.9054 41.1056 31.092 40.3924C30.2787 39.7792 29.165 39.4789 27.8511 39.4789H21.1815V47.2746H27.751V47.2872Z" fill="white"/>
<path d="M47.2962 47.187C48.1095 48.0004 49.3233 48.4008 50.9375 48.4008C52.0512 48.4008 53.0648 48.1005 53.8781 47.5874C54.6915 46.9743 55.192 46.3737 55.3922 45.7605H60.3475C59.5341 48.1881 58.3203 49.9149 56.7061 51.0286C55.0919 52.0422 53.1649 52.6428 50.8374 52.6428C49.2232 52.6428 47.7967 52.3425 46.4828 51.8294C45.1689 51.3289 44.1553 50.6156 43.2419 49.6021C42.3284 48.6886 41.6277 47.5749 41.2147 46.261C40.7142 44.9471 40.5015 43.5331 40.5015 41.9064C40.5015 40.3923 40.7017 38.9658 41.2147 37.6519C41.7278 36.338 42.4285 35.2244 43.342 34.2108C44.2554 33.2973 45.3691 32.484 46.5829 31.9834C47.8968 31.4829 49.2107 31.1701 50.8374 31.1701C52.5642 31.1701 54.0783 31.4704 55.3922 32.1836C56.7061 32.8969 57.7197 33.6977 58.5331 34.9115C59.3464 36.0252 59.947 37.3391 60.36 38.7531C60.5602 40.1671 60.6603 41.5936 60.5602 43.2078H45.8822C45.8822 44.8596 46.4828 46.3737 47.2962 47.187ZM53.6779 36.5508C52.9647 35.8375 51.851 35.4371 50.5371 35.4371C49.6236 35.4371 48.9229 35.6373 48.3097 35.9376C47.6966 36.2379 47.2962 36.6509 46.8957 37.0513C46.4953 37.4517 46.2826 37.9648 46.1825 38.4653C46.0824 38.9658 45.9823 39.3787 45.9823 39.7792H55.0919C54.8917 38.2776 54.3787 37.264 53.6779 36.5508ZM44.7685 25.927H56.1055V28.6549H44.7685V25.927Z" fill="white"/>
</svg>
