<svg width="76" height="76" viewBox="0 0 76 76" fill="none" xmlns="http://www.w3.org/2000/svg">
<path d="M37.8 19.1081C43.8878 19.1081 44.609 19.1313 47.0131 19.241C49.2361 19.3424 50.4434 19.7138 51.2468 20.0261C52.311 20.4397 53.0705 20.9337 53.8683 21.7315C54.6662 22.5294 55.1603 23.2889 55.5739 24.3532C55.8861 25.1566 56.2576 26.3638 56.3589 28.5868C56.4686 30.991 56.4919 31.7121 56.4919 37.7999C56.4919 43.8877 56.4686 44.6089 56.3589 47.013C56.2576 49.236 55.8861 50.4433 55.5739 51.2467C55.1603 52.3109 54.6662 53.0704 53.8684 53.8682C53.0705 54.6661 52.311 55.1602 51.2468 55.5738C50.4434 55.886 49.2361 56.2574 47.0131 56.3588C44.6093 56.4685 43.8883 56.4918 37.8 56.4918C31.7117 56.4918 30.9907 56.4685 28.5868 56.3588C26.3639 56.2574 25.1566 55.886 24.3532 55.5738C23.289 55.1602 22.5294 54.6661 21.7317 53.8682C20.9339 53.0704 20.4397 52.3109 20.0261 51.2467C19.7138 50.4433 19.3424 49.236 19.2411 47.013C19.1314 44.6089 19.1081 43.8877 19.1081 37.7999C19.1081 31.7121 19.1314 30.991 19.2411 28.5868C19.3424 26.3638 19.7138 25.1566 20.0261 24.3532C20.4397 23.2889 20.9338 22.5294 21.7317 21.7316C22.5294 20.9337 23.289 20.4397 24.3532 20.0261C25.1566 19.7138 26.3639 19.3424 28.5868 19.241C30.991 19.1313 31.7122 19.1081 37.8 19.1081ZM37.8 15C31.6079 15 30.8314 15.0262 28.3996 15.1372C25.9728 15.2479 24.3154 15.6334 22.8651 16.1969C21.3658 16.7796 20.0943 17.5592 18.8267 18.8267C17.5592 20.0943 16.7796 21.3658 16.197 22.8651C15.6334 24.3153 15.2479 25.9728 15.1372 28.3995C15.0262 30.8314 15 31.6078 15 37.7999C15 43.992 15.0262 44.7684 15.1372 47.2003C15.2479 49.6271 15.6334 51.2845 16.197 52.7347C16.7796 54.234 17.5592 55.5055 18.8267 56.7731C20.0943 58.0406 21.3658 58.8203 22.8651 59.4028C24.3154 59.9665 25.9728 60.352 28.3996 60.4626C30.8314 60.5736 31.6079 60.5998 37.8 60.5998C43.9921 60.5998 44.7685 60.5736 47.2004 60.4626C49.6272 60.352 51.2846 59.9665 52.7349 59.4028C54.2342 58.8203 55.5057 58.0406 56.7733 56.7731C58.0408 55.5055 58.8204 54.234 59.4031 52.7347C59.9666 51.2845 60.3521 49.6271 60.4628 47.2003C60.5737 44.7684 60.6 43.992 60.6 37.7999C60.6 31.6078 60.5737 30.8314 60.4628 28.3995C60.3521 25.9728 59.9666 24.3153 59.4031 22.8651C58.8204 21.3658 58.0408 20.0943 56.7733 18.8267C55.5057 17.5592 54.2342 16.7796 52.7349 16.1969C51.2846 15.6334 49.6272 15.2479 47.2004 15.1372C44.7685 15.0262 43.9921 15 37.8 15Z" fill="white"/>
<path d="M37.8102 26.1025C31.3439 26.1025 26.1021 31.3444 26.1021 37.8105C26.1021 44.2768 31.3439 49.5186 37.8102 49.5186C44.2764 49.5186 49.5183 44.2768 49.5183 37.8105C49.5183 31.3444 44.2764 26.1025 37.8102 26.1025ZM37.8102 45.4106C33.6128 45.4106 30.2102 42.008 30.2102 37.8105C30.2102 33.6132 33.6128 30.2106 37.8102 30.2106C42.0075 30.2106 45.4102 33.6132 45.4102 37.8105C45.4102 42.008 42.0075 45.4106 37.8102 45.4106Z" fill="white"/>
<path d="M52.7162 25.6327C52.7162 27.1436 51.4912 28.3686 49.9801 28.3686C48.4691 28.3686 47.2441 27.1436 47.2441 25.6327C47.2441 24.1216 48.4691 22.8966 49.9801 22.8966C51.4912 22.8966 52.7162 24.1216 52.7162 25.6327Z" fill="white"/>
</svg>
