<svg width="40" height="40" viewBox="0 0 40 40" fill="none" xmlns="http://www.w3.org/2000/svg">
<g clip-path="url(#clip0_41_124)">
<path d="M33.3333 6.66667H6.66659C4.83325 6.66667 3.33325 8.16667 3.33325 10V30C3.33325 31.8333 4.83325 33.3333 6.66659 33.3333H33.3333C35.1666 33.3333 36.6666 31.8333 36.6666 30V10C36.6666 8.16667 35.1666 6.66667 33.3333 6.66667ZM32.6666 13.75L21.7666 20.5667C20.6833 21.25 19.3166 21.25 18.2333 20.5667L7.33325 13.75C6.91659 13.4833 6.66659 13.0333 6.66659 12.55C6.66659 11.4333 7.88325 10.7667 8.83325 11.35L19.9999 18.3333L31.1666 11.35C32.1166 10.7667 33.3333 11.4333 33.3333 12.55C33.3333 13.0333 33.0833 13.4833 32.6666 13.75Z" fill="white"/>
</g>
<defs>
<clipPath id="clip0_41_124">
<rect width="40" height="40" fill="white"/>
</clipPath>
</defs>
</svg>
