<svg width="76" height="76" viewBox="0 0 76 76" fill="none" xmlns="http://www.w3.org/2000/svg">
<path fill-rule="evenodd" clip-rule="evenodd" d="M18.1348 35.2683C30.3754 29.9353 38.5377 26.4194 42.6218 24.7207C54.2826 19.8706 56.7056 19.0281 58.2848 19.0003C58.6322 18.9942 59.4088 19.0803 59.9119 19.4885C60.3367 19.8332 60.4536 20.2988 60.5095 20.6256C60.5654 20.9524 60.6351 21.6968 60.5797 22.2785C59.9478 28.918 57.2136 45.0301 55.8226 52.4664C55.234 55.613 54.075 56.668 52.953 56.7713C50.5146 56.9957 48.6631 55.1598 46.3014 53.6117C42.6058 51.1892 40.518 49.6812 36.9308 47.3173C32.7852 44.5854 35.4726 43.0839 37.8352 40.63C38.4535 39.9878 49.1971 30.2158 49.405 29.3293C49.431 29.2184 49.4552 28.8052 49.2096 28.5869C48.9641 28.3687 48.6018 28.4433 48.3403 28.5027C47.9696 28.5868 42.0659 32.489 30.6291 40.2091C28.9533 41.3598 27.4355 41.9205 26.0756 41.8911C24.5763 41.8587 21.6924 41.0434 19.5485 40.3465C16.919 39.4917 14.8291 39.0398 15.011 37.5882C15.1058 36.8321 16.1471 36.0588 18.1348 35.2683Z" fill="#26A4E2"/>
</svg>
